<?xml version="1.0" encoding="UTF-8" standalone="no"?>
<svg
xmlns:dc="http://purl.org/dc/elements/1.1/"
xmlns:cc="http://creativecommons.org/ns#"
xmlns:rdf="http://www.w3.org/1999/02/22-rdf-syntax-ns#"
xmlns:svg="http://www.w3.org/2000/svg"
xmlns="http://www.w3.org/2000/svg"
version="1.1"
width="900"
height="150">
<g
transform="translate(-323.5,-408.12501)"
style="stroke-width:3;stroke-miterlimit:4">
<path
d="m 325,470.5 197,1 0,68 -196.5,17 z"
style="fill:green;fill-opacity:1;stroke:#ffffff;stroke-width:3;stroke-linecap:butt;stroke-linejoin:miter;stroke-miterlimit:4;stroke-opacity:1;stroke-dasharray:none" />
<path
d="m 523.58046,470.41954 c -0.13908,-5.26214 5.74754,-7.07818 9.44636,-9 8.61617,-4.24453 9.85572,-8.02297 12.47318,-16.41954 1.76159,-5.65019 1.81398,-11.70163 3,-17.5 0.72099,-3.52486 0.49972,-7.50946 2.5,-10.5 2.05742,-3.07595 5.4789,-5.36144 9,-6.5 2.6959,-0.87173 5.8359,-0.96454 8.5,0 2.44792,0.88627 4.49712,2.87417 6,5 2.77016,3.91842 4.78743,10.31663 4.20977,15.08046 -1.40645,11.59866 -4.33199,20.55541 -6.91954,29.18295 2.63914,4.35385 1.09045,0.91477 19.37546,1.70977 4.12891,2.16337 7.61581,4.72782 6.59773,10.23659 1.52418,5.05477 -3.98096,6.45467 -3.15615,9.34387 5.05679,2.02909 10.82214,5.37105 9.94637,10.26819 0.76071,9.82042 -3.39004,8.29484 -5.5,11.67817 1.54287,3.42335 2.23857,5.25348 2.91954,9.15614 0.89173,5.11047 -2.53079,8.96195 -9.55364,11.05363 -1.03862,3.55186 1.99938,6.55092 2.55364,10.20977 0.64307,4.24511 -1.56067,7.6627 -4.47318,9.08046 -25.61313,0.54849 -33.0002,0.80747 -57.5,0 -2.385,-0.0786 -3.62433,0.62247 -6.20977,-2.02682 -1.45872,-1.49473 -2.77989,-1.80492 -2.79023,-3.44636 z"
style="fill:green;fill-opacity:1;stroke:#ffffff;stroke-width:3;stroke-linecap:butt;stroke-linejoin:miter;stroke-miterlimit:4;stroke-opacity:1;stroke-dasharray:none" />
<rect
width="45"
height="20"
ry="10"
x="571.5"
y="461"
style="fill:green;fill-opacity:1;fill-rule:nonzero;stroke:#ffffff;stroke-width:3;stroke-linecap:round;stroke-linejoin:round;stroke-miterlimit:4;stroke-opacity:1;stroke-dasharray:none;stroke-dashoffset:0" />
<rect
width="57"
height="20"
ry="10"
x="566"
y="483"
style="fill:green;fill-opacity:1;fill-rule:nonzero;stroke:#ffffff;stroke-width:3;stroke-linecap:round;stroke-linejoin:round;stroke-miterlimit:4;stroke-opacity:1;stroke-dasharray:none;stroke-dashoffset:0" />
<rect
width="54.5"
height="20"
ry="10"
x="566.5"
y="502.5"
style="fill:green;fill-opacity:1;fill-rule:nonzero;stroke:#ffffff;stroke-width:3;stroke-linecap:round;stroke-linejoin:round;stroke-miterlimit:4;stroke-opacity:1;stroke-dasharray:none;stroke-dashoffset:0" />
<rect
width="40.5"
height="20"
ry="10"
x="574"
y="523"
style="fill:green;fill-opacity:1;fill-rule:nonzero;stroke:#ffffff;stroke-width:3;stroke-linecap:round;stroke-linejoin:round;stroke-miterlimit:4;stroke-opacity:1;stroke-dasharray:none;stroke-dashoffset:0" />
</g>
<text>
<tspan
x="315.5"
y="97.874992"
style="font-size:48px;text-align:start;text-anchor:start;fill:green;fill-opacity:1;font-family:abc123">Good job!</tspan>
</text>
</svg>

